<svg data-v-fde0c5aa="" xmlns="http://www.w3.org/2000/svg" viewBox="0 0 300 300" class="iconAboveSlogan"><!----><defs data-v-fde0c5aa=""><linearGradient data-v-fde0c5aa="" gradientTransform="rotate(25)" id="73234063-e372-415c-82bb-a0e5880ad1f4" x1="0%" y1="0%" x2="100%" y2="0%"><stop data-v-fde0c5aa="" offset="0%" stop-color="#87544E" stop-opacity="1"></stop><stop data-v-fde0c5aa="" offset="100%" stop-color="#87544E" stop-opacity="1"></stop></linearGradient></defs><rect data-v-fde0c5aa="" fill="url(#73234063-e372-415c-82bb-a0e5880ad1f4)" x="0" y="0" width="300px" height="300px" class="logo-background-square"></rect><defs data-v-fde0c5aa=""><!----></defs><g data-v-fde0c5aa="" id="780d9d82-c735-44ea-b54c-e0c12af9b5cf" fill="#ffffff" transform="matrix(5.2535864049713,0,0,5.2535864049713,14.851485222923916,136.81451050844908)"><path d="M5.40 9.80C6.54 9.48 7.18 8.60 7.18 7.45C7.18 5.75 5.78 5.08 3.39 5.08C2.20 5.08 1.47 5.24 0.98 5.47C1.19 6.02 1.23 6.79 1.23 7.18L1.23 14.15C1.23 14.70 1.64 15.02 2.18 15.02L3.68 15.02C6.20 15.02 7.66 14.20 7.66 12.29C7.66 10.84 6.76 10.00 5.40 9.80ZM3.39 5.70C4.89 5.70 5.42 6.40 5.42 7.57C5.42 8.81 4.84 9.58 3.72 9.56L2.90 9.56L2.90 5.70ZM3.64 14.41L2.90 14.41L2.90 10.18L3.67 10.18C4.94 10.18 5.85 10.61 5.85 12.32C5.85 13.61 5.18 14.41 3.64 14.41ZM15.81 13.79C15.71 13.94 15.54 13.97 15.44 13.97C15.19 13.97 15.06 13.78 15.06 13.24L15.05 8.58C15.05 7.99 14.63 7.64 14.11 7.64C13.65 7.64 13.31 7.87 13.17 7.99C13.44 8.68 13.44 9.17 13.44 11.14C13.44 13.41 12.71 14.43 11.86 14.43C10.99 14.43 10.75 13.69 10.75 12.11L10.75 8.50C10.75 7.95 10.35 7.64 9.81 7.64C9.38 7.64 9.09 7.83 8.86 7.99C9.07 8.55 9.11 9.27 9.11 9.72L9.11 12.36C9.11 14.45 9.81 15.22 11.31 15.22C12.47 15.22 13.24 14.62 13.62 13.55C13.62 14.66 14.13 15.19 14.94 15.19C15.61 15.19 15.97 14.84 15.97 14.32C15.97 14.14 15.92 13.97 15.81 13.79ZM20.08 15.22C22.44 15.22 23.41 13.58 23.41 11.14C23.41 8.64 22.43 7.64 20.94 7.64C19.84 7.64 19.05 8.26 18.75 9.17L18.75 7.83C18.75 7.22 18.79 6.05 19.01 5.14C18.84 5.01 18.48 4.77 17.99 4.77C17.50 4.77 17.12 5.08 17.12 5.64L17.12 14.28C17.78 14.90 18.94 15.22 20.08 15.22ZM19.98 14.53C19.50 14.53 19.01 14.36 18.75 14.14L18.75 11.62C18.75 10.07 19.29 8.51 20.57 8.51C21.32 8.51 21.66 9.31 21.66 11.14C21.66 12.88 21.42 14.50 19.98 14.53ZM30.42 13.06C30.11 13.72 29.40 14.17 28.38 14.17C27.19 14.17 26.38 13.57 26.25 11.79C26.74 11.84 27.20 11.86 27.66 11.86C29.51 11.86 30.73 11.12 30.73 9.73C30.73 8.34 29.53 7.64 27.96 7.64C25.69 7.64 24.47 9.09 24.47 11.42C24.47 13.86 25.82 15.22 27.93 15.22C29.20 15.22 30.18 14.73 30.53 13.83C30.74 13.34 30.60 13.15 30.42 13.06ZM27.90 8.23C28.43 8.23 28.97 8.48 28.97 9.46C28.97 11.03 27.78 11.24 26.78 11.23C26.59 11.23 26.39 11.21 26.22 11.20C26.22 9.32 26.85 8.23 27.90 8.23ZM38.46 13.13L38.46 10.49C38.46 8.60 37.74 7.64 36.20 7.64C35.03 7.64 34.23 8.25 33.85 9.32C33.85 8.19 33.35 7.64 32.54 7.64C31.88 7.64 31.50 8.01 31.50 8.51C31.50 8.71 31.56 8.88 31.67 9.06C31.77 8.90 31.93 8.88 32.05 8.88C32.28 8.88 32.40 9.07 32.41 9.60L32.41 14.27C32.41 14.85 32.82 15.22 33.38 15.22C33.82 15.22 34.16 14.99 34.31 14.85C34.03 14.18 34.03 13.68 34.03 11.70C34.03 9.48 34.79 8.48 35.67 8.48C36.58 8.48 36.82 9.30 36.83 10.72L36.83 14.35C36.83 14.88 37.24 15.22 37.77 15.22C38.18 15.22 38.49 15.05 38.72 14.84C38.50 14.29 38.47 13.58 38.46 13.13ZM43.34 5.10C43.18 4.96 42.27 4.70 41.86 4.76L40.60 6.94C40.70 7.01 41.01 7.06 41.20 7.07ZM42.07 13.13L42.06 8.48C42.06 7.94 41.66 7.63 41.12 7.63C40.67 7.63 40.35 7.87 40.21 7.99C40.40 8.54 40.45 9.17 40.45 9.70L40.45 14.35C40.45 14.88 40.85 15.22 41.37 15.22C41.83 15.22 42.17 14.98 42.31 14.84C42.10 14.29 42.07 13.68 42.07 13.13ZM50.26 13.69C50.12 13.80 49.97 13.83 49.87 13.83C49.59 13.83 49.49 13.66 49.27 13.27L48.73 12.36C48.51 11.98 48.30 11.72 47.99 11.63C49 11.16 49.99 10.37 49.99 9.21C49.99 8.33 49.46 7.64 48.22 7.64C46.93 7.64 46.06 8.37 45.64 9.48L45.65 8.15C45.70 7.07 45.64 6.51 45.91 5.14C45.78 5.01 45.46 4.77 44.98 4.77C44.44 4.77 44.03 5.08 44.04 5.64L44.04 14.27C44.04 14.80 44.21 15.22 44.95 15.22C45.47 15.22 45.75 15.01 45.95 14.85C45.68 14.22 45.67 13.87 45.67 12.32C46.03 12.25 46.44 12.14 46.90 12.00L47.88 14.20C48.16 14.90 48.68 15.22 49.25 15.22C49.94 15.22 50.47 14.78 50.47 14.24C50.47 14.06 50.41 13.86 50.26 13.69ZM45.67 11.69C45.67 9.90 46.48 8.48 47.60 8.48C48.01 8.48 48.33 8.69 48.33 9.31C48.33 10.57 46.91 11.33 45.67 11.69Z"></path></g><defs data-v-fde0c5aa=""><!----></defs><g data-v-fde0c5aa="" id="0b7715ae-e54e-4051-8d16-d825219459f7" stroke="none" fill="#ffffff" transform="matrix(1.488133913515675,0,0,1.488133913515675,102.35078553993017,52.99028308511787)"><g data-name="27 Bees"><path d="M60.2 35.54a5.807 5.807 0 0 0-4.452 1.025 5.681 5.681 0 0 0-2.323-1.35 5.818 5.818 0 0 0-1.34-4.36 1 1 0 0 0-1.5 1.329 3.742 3.742 0 0 1 .847 2.775 6 6 0 0 0-4.965 2.988l-1.725 2.988-3.008-.808c-1.367-.364-3.333-.208-4.963 2.614a2.946 2.946 0 0 0 .288 3.341 4.7 4.7 0 0 0 3.651 1.783c.063 0 .126-.009.189-.011-.106.236-.223.474-.319.709a15.208 15.208 0 0 0-1.106 4.292v.008a9.033 9.033 0 0 0 1.031 5.409L39.8 59.5a1 1 0 1 0 1.732 1l.706-1.224a9.052 9.052 0 0 0 5.209-1.805 15.613 15.613 0 0 0 3.166-3.105v-.008l.006-.005c.155-.2.3-.418.445-.626a4.683 4.683 0 0 0 3.449 2.438 3.635 3.635 0 0 0 .461.029 2.888 2.888 0 0 0 2.576-1.451c1.631-2.823.782-4.606-.218-5.606l-2.2-2.2 1.725-2.988a5.912 5.912 0 0 0 .1-5.792A3.739 3.739 0 0 1 59.8 37.5a1 1 0 0 0 .4-1.96zM46.8 55.456l-1.5-.867-3.749-2.165a12.854 12.854 0 0 1 .493-2.025l1.7.98 4.556 2.636a13.063 13.063 0 0 1-1.5 1.441zm-4.56 1.824a6.577 6.577 0 0 1-.781-2.6l3.43 1.98a6.641 6.641 0 0 1-2.65.62zm7.39-11.312l.017.1c.1.627.213 1.312.321 1.977l-.631-.364-2.962-1.71 3.066-1.163c.059.344.12.736.189 1.16zm-6.1 1.082l.428-.161L50.38 50.6l.074.453q-.422.7-.9 1.382l-6.773-3.911q.339-.735.75-1.474zm-4.875-2.18a.923.923 0 0 1-.146-1.129c1.2-2.087 2.3-1.8 2.712-1.682l3.744 1.006 1.768.474.24.064-4.491 1.7a.645.645 0 0 0-.1.046l-1.224.464a2.67 2.67 0 0 1-2.502-.943zm17.175 8.871a.91.91 0 0 1-1.05.438 2.676 2.676 0 0 1-2.072-1.7l-.208-1.287a.88.88 0 0 0-.013-.115l-.21-1.279a756.712 756.712 0 0 0-.558-3.452l1.466 1.466h.007l2.741 2.737c.3.303 1.102 1.105-.103 3.192zm-.7-10.794l-1.457 2.524-2.74-2.737a1 1 0 0 0-.1-.08.873.873 0 0 0-.077-.059l-.053-.031a.87.87 0 0 0-.095-.04 1.081 1.081 0 0 0-.118-.048l-3.741-1.005 1.458-2.524a4 4 0 0 1 6.928 4zM22.258 12.608l-3.007.808-1.725-2.988A5.992 5.992 0 0 0 12.56 7.44a3.737 3.737 0 0 1 .848-2.776 1 1 0 0 0-1.495-1.328A5.815 5.815 0 0 0 10.574 7.7a5.785 5.785 0 0 0-2.33 1.345A5.81 5.81 0 0 0 3.8 8.021a1 1 0 0 0 .4 1.958 3.747 3.747 0 0 1 2.827.655 6 6 0 0 0 .105 5.794l1.725 2.988-2.2 2.2c-1 1-1.848 2.781-.218 5.606a2.893 2.893 0 0 0 2.577 1.451 3.639 3.639 0 0 0 .461-.03 4.685 4.685 0 0 0 3.449-2.438c.148.208.29.422.445.625l.006.006v.008a15.606 15.606 0 0 0 3.166 3.1 9.054 9.054 0 0 0 5.211 1.808l.706 1.222a1 1 0 1 0 1.732-1l-.706-1.222a9.039 9.039 0 0 0 1.031-5.41v-.01a15.219 15.219 0 0 0-1.106-4.291c-.1-.237-.213-.474-.319-.711.063 0 .126.012.189.012a4.7 4.7 0 0 0 3.651-1.784 2.943 2.943 0 0 0 .288-3.339c-1.628-2.819-3.598-2.979-4.962-2.611zm-.5 17.153a6.637 6.637 0 0 1-2.649-.618l3.43-1.981a6.577 6.577 0 0 1-.778 2.599zm-7.1-9.6l-.631.364.2-1.224.181-1.113c.054-.327.1-.629.147-.9l3.066 1.163zm-.221 4.746a24.39 24.39 0 0 1-.9-1.382v-.015l.072-.437 6.421-3.707.428.162c.272.488.522.98.747 1.469l-2.087 1.2zm-5.571-9.479a4 4 0 0 1 6.928-4l1.457 2.524-3.74 1a1 1 0 0 0-.117.049 1.014 1.014 0 0 0-.1.039.671.671 0 0 0-.053.031.873.873 0 0 0-.077.059.917.917 0 0 0-.1.081l-2.74 2.737zM11.5 23.67l-.21 1.295a2.675 2.675 0 0 1-2.072 1.7.921.921 0 0 1-1.05-.437c-1.2-2.088-.4-2.89-.1-3.191l2.742-2.738h.007l1.235-1.235.231-.231c-.141.866-.291 1.787-.42 2.589-.05.309-.1.6-.139.865l-.21 1.281a.7.7 0 0 0-.014.102zm10.457-.789a12.8 12.8 0 0 1 .493 2.023L18.7 27.07l-1.5.866a13.136 13.136 0 0 1-1.5-1.44zm3.386-5.531a2.675 2.675 0 0 1-2.506.947l-1.22-.463a1.1 1.1 0 0 0-.106-.047l-4.49-1.7 2.006-.537h.007l3.742-1.005c.413-.109 1.507-.4 2.712 1.683a.921.921 0 0 1-.143 1.122z"></path></g></g><defs data-v-fde0c5aa=""><!----></defs><g data-v-fde0c5aa="" id="7aeda939-9922-4741-995a-dbba8c850394" fill="#ffffff" transform="matrix(0.9380863259753675,0,0,0.9380863259753675,49.357410897445405,223.48141399974395)"><path d="M5.87 16.07L5.87 16.07L5.87 16.07Q5.54 16.24 5.18 16.24L5.18 16.24L5.18 16.24Q4.73 16.18 4.32 16.02L4.32 16.02L4.32 16.02Q3.91 15.85 3.71 15.61L3.71 15.61L3.71 15.61Q3.60 14.92 3.53 14.35L3.53 14.35L3.53 14.35Q3.46 13.78 3.42 13.27L3.42 13.27L3.42 13.27Q3.37 12.75 3.36 12.29L3.36 12.29L3.36 12.29Q3.35 11.82 3.35 11.34L3.35 11.34L3.35 11.34Q3.35 10.71 3.36 10.01L3.36 10.01L3.36 10.01Q3.37 9.31 3.40 8.52L3.40 8.52L3.40 8.52Q3.42 7.73 3.43 6.82L3.43 6.82L3.43 6.82Q3.44 5.92 3.44 4.86L3.44 4.86L3.44 4.86Q3.63 4.86 3.99 4.96L3.99 4.96L3.99 4.96Q4.35 5.07 4.71 5.21L4.71 5.21L4.71 5.21Q5.07 5.35 5.35 5.49L5.35 5.49L5.35 5.49Q5.63 5.64 5.66 5.74L5.66 5.74L5.66 5.74Q5.52 6.13 5.41 6.76L5.41 6.76L5.41 6.76Q5.31 7.39 5.24 8.16L5.24 8.16L5.24 8.16Q5.18 8.93 5.15 9.79L5.15 9.79L5.15 9.79Q5.12 10.64 5.12 11.48L5.12 11.48L5.12 11.48Q5.12 12.11 5.14 12.61L5.14 12.61L5.14 12.61Q5.15 13.10 5.17 13.50L5.17 13.50L5.17 13.50Q5.19 13.90 5.24 14.25L5.24 14.25L5.24 14.25Q5.28 14.59 5.33 14.92L5.33 14.92L5.33 14.92Q5.73 13.73 6.20 12.54L6.20 12.54L6.20 12.54Q6.66 11.35 7.16 10.25L7.16 10.25L7.16 10.25Q7.66 9.16 8.15 8.20L8.15 8.20L8.15 8.20Q8.64 7.25 9.08 6.54L9.08 6.54L9.08 6.54Q9.52 5.84 9.87 5.43L9.87 5.43L9.87 5.43Q10.22 5.01 10.44 4.98L10.44 4.98L10.44 4.98Q10.60 5.01 10.77 5.10L10.77 5.10L10.77 5.10Q10.95 5.19 11.10 5.32L11.10 5.32L11.10 5.32Q11.26 5.45 11.38 5.60L11.38 5.60L11.38 5.60Q11.51 5.75 11.58 5.91L11.58 5.91L11.58 5.91Q11.06 6.09 10.46 6.76L10.46 6.76L10.46 6.76Q9.87 7.43 9.27 8.38L9.27 8.38L9.27 8.38Q8.67 9.32 8.10 10.44L8.10 10.44L8.10 10.44Q7.53 11.55 7.08 12.61L7.08 12.61L7.08 12.61Q6.62 13.68 6.30 14.60L6.30 14.60L6.30 14.60Q5.98 15.53 5.87 16.07ZM16.21 12.71L16.21 12.71L16.21 12.71Q16.21 11.91 16.54 11.16L16.54 11.16L16.54 11.16Q16.87 10.42 17.41 9.84L17.41 9.84L17.41 9.84Q17.95 9.25 18.64 8.90L18.64 8.90L18.64 8.90Q19.33 8.54 20.08 8.54L20.08 8.54L20.08 8.54Q20.80 8.54 21.20 8.90L21.20 8.90L21.20 8.90Q21.59 9.27 21.59 9.94L21.59 9.94L21.59 9.94Q21.59 10.26 21.50 10.56L21.50 10.56L21.50 10.56Q21.41 10.86 21.26 11.10L21.26 11.10L21.26 11.10Q21.11 11.34 20.92 11.49L20.92 11.49L20.92 11.49Q20.72 11.63 20.52 11.63L20.52 11.63L20.52 11.63Q20.36 11.63 20.18 11.53L20.18 11.53L20.18 11.53Q20.01 11.42 19.89 11.26L19.89 11.26L19.89 11.26Q20.83 10.40 20.83 9.70L20.83 9.70L20.83 9.70Q20.83 9.30 20.51 9.30L20.51 9.30L20.51 9.30Q20.23 9.30 19.81 9.56L19.81 9.56L19.81 9.56Q19.39 9.83 19.00 10.26L19.00 10.26L19.00 10.26Q18.40 10.93 18.08 11.75L18.08 11.75L18.08 11.75Q17.77 12.57 17.77 13.47L17.77 13.47L17.77 13.47Q17.77 14.60 18.27 14.83L18.27 14.83L18.27 14.83Q18.48 14.80 18.76 14.70L18.76 14.70L18.76 14.70Q19.04 14.60 19.36 14.44L19.36 14.44L19.36 14.44Q19.68 14.28 20.03 14.07L20.03 14.07L20.03 14.07Q20.37 13.86 20.69 13.62L20.69 13.62L20.69 13.62Q20.75 13.66 20.79 13.75L20.79 13.75L20.79 13.75Q20.83 13.83 20.83 13.90L20.83 13.90L20.83 13.90Q20.59 14.20 20.29 14.48L20.29 14.48L20.29 14.48Q19.98 14.76 19.64 14.99L19.64 14.99L19.64 14.99Q19.31 15.22 18.99 15.38L18.99 15.38L18.99 15.38Q18.68 15.54 18.44 15.58L18.44 15.58L18.44 15.58Q17.98 15.54 17.57 15.29L17.57 15.29L17.57 15.29Q17.16 15.05 16.86 14.66L16.86 14.66L16.86 14.66Q16.56 14.27 16.39 13.76L16.39 13.76L16.39 13.76Q16.21 13.26 16.21 12.71ZM21.04 8.11L21.04 8.11L21.04 8.11Q20.66 8.01 20.48 7.92L20.48 7.92L20.48 7.92Q20.29 7.84 20.13 7.70L20.13 7.70L20.13 7.70Q20.05 6.90 19.81 6.30L19.81 6.30L19.81 6.30Q19.57 5.70 19.17 5.19L19.17 5.19L19.17 5.19Q19.28 5.17 19.32 5.17L19.32 5.17L19.32 5.17Q19.36 5.17 19.40 5.17L19.40 5.17L19.40 5.17Q20.20 5.17 20.96 6.87L20.96 6.87L20.96 6.87Q21.39 6.33 21.71 6.01L21.71 6.01L21.71 6.01Q22.04 5.68 22.34 5.53L22.34 5.53L22.34 5.53Q22.48 5.56 22.69 5.75L22.69 5.75L22.69 5.75Q22.89 5.94 23.10 6.22L23.10 6.22L23.10 6.22Q22.57 6.44 22.09 6.87L22.09 6.87L22.09 6.87Q21.62 7.31 21.04 8.11ZM34.02 9.38L34.02 9.38L34.02 9.38Q33.96 10.25 33.71 10.87L33.71 10.87L33.71 10.87Q33.46 11.49 32.99 11.96L32.99 11.96L32.99 11.96Q32.52 12.43 31.85 12.81L31.85 12.81L31.85 12.81Q31.18 13.19 30.28 13.54L30.28 13.54L30.28 13.54Q30.28 13.62 30.27 13.71L30.27 13.71L30.27 13.71Q30.27 13.80 30.27 13.90L30.27 13.90L30.27 13.90Q30.27 14.08 30.30 14.28L30.30 14.28L30.30 14.28Q30.32 14.48 30.39 14.64L30.39 14.64L30.39 14.64Q30.46 14.81 30.59 14.92L30.59 14.92L30.59 14.92Q30.72 15.02 30.91 15.02L30.91 15.02L30.91 15.02Q31.29 15.02 31.65 14.85L31.65 14.85L31.65 14.85Q32.02 14.69 32.35 14.44L32.35 14.44L32.35 14.44Q32.68 14.20 32.96 13.91L32.96 13.91L32.96 13.91Q33.25 13.62 33.47 13.38L33.47 13.38L33.47 13.38Q33.61 13.51 33.71 13.62L33.71 13.62L33.71 13.62Q33.08 14.46 32.33 15.02L32.33 15.02L32.33 15.02Q31.58 15.57 30.91 15.72L30.91 15.72L30.91 15.72Q29.95 15.61 29.41 15.02L29.41 15.02L29.41 15.02Q28.87 14.42 28.87 13.58L28.87 13.58L28.87 13.58Q28.87 13.01 29.03 12.41L29.03 12.41L29.03 12.41Q29.19 11.82 29.48 11.26L29.48 11.26L29.48 11.26Q29.76 10.71 30.15 10.22L30.15 10.22L30.15 10.22Q30.53 9.73 30.97 9.37L30.97 9.37L30.97 9.37Q31.42 9.00 31.88 8.79L31.88 8.79L31.88 8.79Q32.35 8.58 32.82 8.58L32.82 8.58L32.82 8.58Q33.46 8.67 34.02 9.38ZM33.05 9.84L33.05 9.84L33.05 9.84Q32.68 9.90 32.27 10.15L32.27 10.15L32.27 10.15Q31.86 10.40 31.51 10.82L31.51 10.82L31.51 10.82Q31.15 11.24 30.86 11.80L30.86 11.80L30.86 11.80Q30.56 12.36 30.39 13.01L30.39 13.01L30.39 13.01Q31.51 12.45 32.26 11.63L32.26 11.63L32.26 11.63Q33.00 10.81 33.05 9.84ZM41.65 14.28L41.65 14.28L41.65 14.28Q41.65 13.66 41.94 12.55L41.94 12.55L41.94 12.55Q42.24 11.44 42.77 9.95L42.77 9.95L42.77 9.95Q43.64 7.59 44.40 6.01L44.40 6.01L44.40 6.01Q45.16 4.44 45.89 3.56L45.89 3.56L45.89 3.56Q46.06 3.58 46.30 3.70L46.30 3.70L46.30 3.70Q46.55 3.81 46.79 3.94L46.79 3.94L46.79 3.94Q47.03 4.07 47.21 4.21L47.21 4.21L47.21 4.21Q47.40 4.35 47.46 4.44L47.46 4.44L47.46 4.44Q46.37 5.73 45.54 7.21L45.54 7.21L45.54 7.21Q44.72 8.69 44.03 10.61L44.03 10.61L44.03 10.61Q43.44 12.26 43.13 13.59L43.13 13.59L43.13 13.59Q42.83 14.91 42.83 15.79L42.83 15.79L42.83 15.79Q42.83 16.03 42.83 16.09L42.83 16.09L42.83 16.09Q42.83 16.14 42.84 16.20L42.84 16.20L42.84 16.20Q42.64 16.17 42.50 16.10L42.50 16.10L42.50 16.10Q42.36 16.03 42.32 15.93L42.32 15.93L42.32 15.93Q42.29 15.86 42.17 15.73L42.17 15.73L42.17 15.73Q42.04 15.60 41.94 15.53L41.94 15.53L41.94 15.53Q41.82 15.44 41.73 15.09L41.73 15.09L41.73 15.09Q41.65 14.73 41.65 14.28ZM56.74 9.52L56.74 9.52L56.74 9.52Q56.88 9.52 57.07 9.57L57.07 9.57L57.07 9.57Q57.26 9.62 57.41 9.70L57.41 9.70L57.41 9.70Q57.57 9.77 57.67 9.86L57.67 9.86L57.67 9.86Q57.78 9.94 57.78 10.01L57.78 10.01L57.78 10.01Q57.50 10.60 57.26 11.19L57.26 11.19L57.26 11.19Q57.02 11.79 56.85 12.33L56.85 12.33L56.85 12.33Q56.69 12.88 56.59 13.36L56.59 13.36L56.59 13.36Q56.50 13.83 56.50 14.18L56.50 14.18L56.50 14.18Q56.50 14.57 56.59 14.83L56.59 14.83L56.59 14.83Q56.67 15.09 56.87 15.20L56.87 15.20L56.87 15.20Q56.70 15.32 56.43 15.39L56.43 15.39L56.43 15.39Q56.17 15.46 55.96 15.46L55.96 15.46L55.96 15.46Q55.20 15.46 55.20 14.42L55.20 14.42L55.20 14.42Q55.20 13.62 55.73 12.24L55.73 12.24L55.73 12.24Q55.45 12.88 55.09 13.45L55.09 13.45L55.09 13.45Q54.73 14.01 54.35 14.45L54.35 14.45L54.35 14.45Q53.97 14.88 53.59 15.15L53.59 15.15L53.59 15.15Q53.20 15.43 52.88 15.48L52.88 15.48L52.88 15.48Q52.36 15.46 52.04 14.99L52.04 14.99L52.04 14.99Q51.72 14.52 51.72 13.79L51.72 13.79L51.72 13.79Q51.72 13.01 52.05 12.14L52.05 12.14L52.05 12.14Q52.39 11.27 52.91 10.53L52.91 10.53L52.91 10.53Q53.44 9.79 54.05 9.29L54.05 9.29L54.05 9.29Q54.67 8.79 55.24 8.76L55.24 8.76L55.24 8.76Q55.38 8.81 55.56 8.93L55.56 8.93L55.56 8.93Q55.73 9.06 55.90 9.23L55.90 9.23L55.90 9.23Q56.06 9.39 56.17 9.57L56.17 9.57L56.17 9.57Q56.28 9.74 56.29 9.87L56.29 9.87L56.29 9.87Q55.73 9.95 55.14 10.42L55.14 10.42L55.14 10.42Q54.54 10.88 54.06 11.53L54.06 11.53L54.06 11.53Q53.58 12.18 53.27 12.92L53.27 12.92L53.27 12.92Q52.96 13.66 52.96 14.31L52.96 14.31L52.96 14.31Q52.96 14.57 53.16 14.64L53.16 14.64L53.16 14.64Q53.56 14.56 54.10 13.95L54.10 13.95L54.10 13.95Q54.63 13.34 55.38 12.07L55.38 12.07L55.38 12.07Q55.52 11.82 55.70 11.51L55.70 11.51L55.70 11.51Q55.87 11.20 56.06 10.86L56.06 10.86L56.06 10.86Q56.24 10.53 56.41 10.18L56.41 10.18L56.41 10.18Q56.59 9.84 56.74 9.52ZM65.16 14.90L65.16 14.90L65.16 14.90Q65.23 14.49 65.40 13.82L65.40 13.82L65.40 13.82Q65.58 13.16 65.81 12.41L65.81 12.41L65.81 12.41Q66.05 11.66 66.32 10.91L66.32 10.91L66.32 10.91Q66.58 10.15 66.84 9.55L66.84 9.55L66.84 9.55Q67.02 9.11 67.16 8.87L67.16 8.87L67.16 8.87Q67.30 8.62 67.47 8.46L67.47 8.46L67.47 8.46Q67.66 8.48 67.87 8.55L67.87 8.55L67.87 8.55Q68.08 8.62 68.28 8.72L68.28 8.72L68.28 8.72Q68.47 8.82 68.63 8.93L68.63 8.93L68.63 8.93Q68.78 9.03 68.87 9.13L68.87 9.13L68.87 9.13Q68.49 9.58 68.20 10.15L68.20 10.15L68.20 10.15Q67.91 10.72 67.62 11.62L67.62 11.62L67.62 11.62Q68.38 10.95 68.96 10.33L68.96 10.33L68.96 10.33Q69.54 9.72 70.04 8.96L70.04 8.96L70.04 8.96Q70.13 8.89 70.34 8.89L70.34 8.89L70.34 8.89Q70.53 8.89 70.71 8.95L70.71 8.95L70.71 8.95Q70.90 9.02 70.97 9.13L70.97 9.13L70.97 9.13Q70.71 9.80 70.71 10.46L70.71 10.46L70.71 10.46Q70.71 11.07 70.90 11.38L70.90 11.38L70.90 11.38Q70.88 11.47 70.71 11.70L70.71 11.70L70.71 11.70Q70.53 11.94 70.32 12.15L70.32 12.15L70.32 12.15Q69.94 11.96 69.65 11.61L69.65 11.61L69.65 11.61Q69.36 11.27 69.22 10.86L69.22 10.86L69.22 10.86Q68.56 11.33 68.10 11.77L68.10 11.77L68.10 11.77Q67.63 12.21 67.31 12.75L67.31 12.75L67.31 12.75Q66.98 13.29 66.75 13.99L66.75 13.99L66.75 13.99Q66.51 14.69 66.30 15.65L66.30 15.65L66.30 15.65Q66.18 15.64 66.00 15.56L66.00 15.56L66.00 15.56Q65.83 15.48 65.65 15.37L65.65 15.37L65.65 15.37Q65.48 15.26 65.34 15.13L65.34 15.13L65.34 15.13Q65.20 15.01 65.16 14.90ZM70.01 8.11L70.01 8.11L70.01 8.11Q69.64 8.01 69.45 7.92L69.45 7.92L69.45 7.92Q69.26 7.84 69.10 7.70L69.10 7.70L69.10 7.70Q69.02 6.90 68.78 6.30L68.78 6.30L68.78 6.30Q68.54 5.70 68.14 5.19L68.14 5.19L68.14 5.19Q68.25 5.17 68.29 5.17L68.29 5.17L68.29 5.17Q68.33 5.17 68.38 5.17L68.38 5.17L68.38 5.17Q69.17 5.17 69.93 6.87L69.93 6.87L69.93 6.87Q70.36 6.33 70.69 6.01L70.69 6.01L70.69 6.01Q71.01 5.68 71.32 5.53L71.32 5.53L71.32 5.53Q71.46 5.56 71.66 5.75L71.66 5.75L71.66 5.75Q71.86 5.94 72.07 6.22L72.07 6.22L72.07 6.22Q71.54 6.44 71.06 6.87L71.06 6.87L71.06 6.87Q70.59 7.31 70.01 8.11ZM82.74 9.60L82.74 9.60L82.74 9.60Q82.73 9.87 82.65 10.16L82.65 10.16L82.65 10.16Q82.57 10.44 82.46 10.68L82.46 10.68L82.46 10.68Q82.35 10.91 82.22 11.06L82.22 11.06L82.22 11.06Q82.10 11.21 81.98 11.21L81.98 11.21L81.98 11.21Q81.83 11.20 81.80 11.00L81.80 11.00L81.80 11.00Q81.80 10.96 81.84 10.87L81.84 10.87L81.84 10.87Q81.87 10.78 81.91 10.67L81.91 10.67L81.91 10.67Q81.96 10.56 81.99 10.44L81.99 10.44L81.99 10.44Q82.03 10.33 82.03 10.25L82.03 10.25L82.03 10.25Q82.03 10.05 81.93 9.92L81.93 9.92L81.93 9.92Q81.84 9.79 81.69 9.79L81.69 9.79L81.69 9.79Q81.13 9.79 80.84 10.49L80.84 10.49L80.84 10.49Q80.54 11.19 80.54 12.54L80.54 12.54L80.54 12.54Q80.54 12.68 80.56 12.71L80.56 12.71L80.56 12.71Q80.85 12.70 81.08 12.69L81.08 12.69L81.08 12.69Q81.31 12.68 81.54 12.68L81.54 12.68L81.54 12.68Q81.55 12.71 81.55 12.80L81.55 12.80L81.55 12.80Q81.55 12.92 81.49 12.98L81.49 12.98L81.49 12.98Q81.17 13.05 80.98 13.10L80.98 13.10L80.98 13.10Q80.79 13.15 80.70 13.19L80.70 13.19L80.70 13.19Q80.60 13.23 80.58 13.28L80.58 13.28L80.58 13.28Q80.56 13.33 80.56 13.41L80.56 13.41L80.56 13.41Q80.56 13.52 80.56 13.64L80.56 13.64L80.56 13.64Q80.57 13.75 80.57 13.92L80.57 13.92L80.57 13.92Q80.57 15.09 79.93 15.81L79.93 15.81L79.93 15.81Q79.30 16.52 78.16 16.63L78.16 16.63L78.16 16.63Q77.97 16.62 77.76 16.52L77.76 16.52L77.76 16.52Q77.55 16.42 77.36 16.27L77.36 16.27L77.36 16.27Q77.17 16.11 77.03 15.93L77.03 15.93L77.03 15.93Q76.89 15.74 76.83 15.54L76.83 15.54L76.83 15.54Q76.83 15.01 77.06 14.53L77.06 14.53L77.06 14.53Q77.28 14.04 77.66 13.67L77.66 13.67L77.66 13.67Q78.05 13.30 78.57 13.07L78.57 13.07L78.57 13.07Q79.10 12.84 79.72 12.80L79.72 12.80L79.72 12.80Q79.72 12.45 79.65 12.11L79.65 12.11L79.65 12.11Q79.58 11.77 79.50 11.46L79.50 11.46L79.50 11.46Q79.42 11.14 79.35 10.84L79.35 10.84L79.35 10.84Q79.28 10.54 79.28 10.25L79.28 10.25L79.28 10.25Q79.28 9.87 79.44 9.50L79.44 9.50L79.44 9.50Q79.59 9.13 79.84 8.81L79.84 8.81L79.84 8.81Q80.09 8.50 80.43 8.27L80.43 8.27L80.43 8.27Q80.77 8.05 81.13 7.97L81.13 7.97L81.13 7.97Q81.28 8.01 81.54 8.21L81.54 8.21L81.54 8.21Q81.80 8.41 82.05 8.67L82.05 8.67L82.05 8.67Q82.31 8.92 82.50 9.18L82.50 9.18L82.50 9.18Q82.70 9.44 82.74 9.60ZM78.12 15.99L78.12 15.99L78.12 15.99Q78.46 15.85 78.76 15.58L78.76 15.58L78.76 15.58Q79.06 15.32 79.28 14.98L79.28 14.98L79.28 14.98Q79.51 14.64 79.64 14.27L79.64 14.27L79.64 14.27Q79.77 13.89 79.77 13.52L79.77 13.52L79.77 13.52Q79.49 13.57 79.16 13.78L79.16 13.78L79.16 13.78Q78.82 14 78.53 14.30L78.53 14.30L78.53 14.30Q78.23 14.60 78.04 14.92L78.04 14.92L78.04 14.92Q77.84 15.25 77.84 15.48L77.84 15.48L77.84 15.48Q77.84 15.79 78.12 15.99ZM89.78 13.86L89.78 13.86L89.78 13.86Q89.78 13.36 90.04 12.46L90.04 12.46L90.04 12.46Q90.30 11.56 90.72 10.50L90.72 10.50L90.72 10.50Q91.14 9.44 91.67 8.30L91.67 8.30L91.67 8.30Q92.20 7.17 92.74 6.19L92.74 6.19L92.74 6.19Q93.28 5.21 93.78 4.49L93.78 4.49L93.78 4.49Q94.28 3.78 94.63 3.53L94.63 3.53L94.63 3.53Q94.82 3.54 95.05 3.70L95.05 3.70L95.05 3.70Q95.28 3.85 95.48 4.07L95.48 4.07L95.48 4.07Q95.68 4.28 95.81 4.52L95.81 4.52L95.81 4.52Q95.94 4.76 95.94 4.96L95.94 4.96L95.94 4.96Q95.31 5.46 94.66 6.25L94.66 6.25L94.66 6.25Q94.01 7.04 93.42 7.99L93.42 7.99L93.42 7.99Q92.83 8.93 92.34 9.99L92.34 9.99L92.34 9.99Q91.84 11.05 91.50 12.07L91.50 12.07L91.50 12.07Q91.95 11.30 92.44 10.67L92.44 10.67L92.44 10.67Q92.93 10.04 93.42 9.59L93.42 9.59L93.42 9.59Q93.91 9.14 94.38 8.90L94.38 8.90L94.38 8.90Q94.85 8.65 95.27 8.64L95.27 8.64L95.27 8.64Q95.89 9.09 95.89 9.83L95.89 9.83L95.89 9.83Q95.89 10.28 95.70 10.73L95.70 10.73L95.70 10.73Q95.52 11.19 95.22 11.57L95.22 11.57L95.22 11.57Q94.92 11.96 94.53 12.23L94.53 12.23L94.53 12.23Q94.15 12.50 93.73 12.59L93.73 12.59L93.73 12.59Q93.87 13.08 94.09 13.58L94.09 13.58L94.09 13.58Q94.30 14.08 94.60 14.56L94.60 14.56L94.60 14.56Q94.91 15.04 95.29 15.44L95.29 15.44L95.29 15.44Q95.68 15.85 96.17 16.13L96.17 16.13L96.17 16.13Q96.10 16.27 95.96 16.41L95.96 16.41L95.96 16.41Q95.82 16.55 95.62 16.65L95.62 16.65L95.62 16.65Q95.42 16.76 95.19 16.82L95.19 16.82L95.19 16.82Q94.96 16.88 94.74 16.88L94.74 16.88L94.74 16.88Q94.36 16.88 94.03 16.51L94.03 16.51L94.03 16.51Q93.70 16.13 93.44 15.41L93.44 15.41L93.44 15.41Q93.23 14.84 93.03 14.04L93.03 14.04L93.03 14.04Q92.83 13.24 92.68 12.38L92.68 12.38L92.68 12.38Q92.88 12.25 93.17 12.00L93.17 12.00L93.17 12.00Q93.46 11.76 93.79 11.44L93.79 11.44L93.79 11.44Q95.02 10.25 95.02 9.38L95.02 9.38L95.02 9.38Q95.02 9.27 94.86 9.27L94.86 9.27L94.86 9.27Q94.58 9.28 94.21 9.53L94.21 9.53L94.21 9.53Q93.83 9.79 93.40 10.23L93.40 10.23L93.40 10.23Q92.97 10.68 92.53 11.28L92.53 11.28L92.53 11.28Q92.09 11.89 91.69 12.59L91.69 12.59L91.69 12.59Q91.52 12.87 91.38 13.23L91.38 13.23L91.38 13.23Q91.24 13.59 91.13 13.98L91.13 13.98L91.13 13.98Q91.03 14.36 90.97 14.74L90.97 14.74L90.97 14.74Q90.92 15.12 90.92 15.44L90.92 15.44L90.92 15.44Q90.92 15.64 90.96 15.76L90.96 15.76L90.96 15.76Q90.52 15.72 90.43 15.54L90.43 15.54L90.43 15.54Q90.31 15.37 90.24 15.27L90.24 15.27L90.24 15.27Q90.16 15.16 90.08 15.09L90.08 15.09L90.08 15.09Q89.95 14.99 89.87 14.67L89.87 14.67L89.87 14.67Q89.78 14.35 89.78 13.86ZM108.65 9.38L108.65 9.38L108.65 9.38Q108.60 10.25 108.35 10.87L108.35 10.87L108.35 10.87Q108.09 11.49 107.62 11.96L107.62 11.96L107.62 11.96Q107.16 12.43 106.48 12.81L106.48 12.81L106.48 12.81Q105.81 13.19 104.92 13.54L104.92 13.54L104.92 13.54Q104.92 13.62 104.91 13.71L104.91 13.71L104.91 13.71Q104.90 13.80 104.90 13.90L104.90 13.90L104.90 13.90Q104.90 14.08 104.93 14.28L104.93 14.28L104.93 14.28Q104.96 14.48 105.03 14.64L105.03 14.64L105.03 14.64Q105.10 14.81 105.22 14.92L105.22 14.92L105.22 14.92Q105.35 15.02 105.55 15.02L105.55 15.02L105.55 15.02Q105.92 15.02 106.29 14.85L106.29 14.85L106.29 14.85Q106.65 14.69 106.98 14.44L106.98 14.44L106.98 14.44Q107.31 14.20 107.60 13.91L107.60 13.91L107.60 13.91Q107.88 13.62 108.11 13.38L108.11 13.38L108.11 13.38Q108.25 13.51 108.35 13.62L108.35 13.62L108.35 13.62Q107.72 14.46 106.97 15.02L106.97 15.02L106.97 15.02Q106.22 15.57 105.55 15.72L105.55 15.72L105.55 15.72Q104.58 15.61 104.04 15.02L104.04 15.02L104.04 15.02Q103.50 14.42 103.50 13.58L103.50 13.58L103.50 13.58Q103.50 13.01 103.66 12.41L103.66 12.41L103.66 12.41Q103.82 11.82 104.11 11.26L104.11 11.26L104.11 11.26Q104.40 10.71 104.78 10.22L104.78 10.22L104.78 10.22Q105.17 9.73 105.61 9.37L105.61 9.37L105.61 9.37Q106.05 9.00 106.52 8.79L106.52 8.79L106.52 8.79Q106.99 8.58 107.45 8.58L107.45 8.58L107.45 8.58Q108.09 8.67 108.65 9.38ZM107.69 9.84L107.69 9.84L107.69 9.84Q107.31 9.90 106.90 10.15L106.90 10.15L106.90 10.15Q106.50 10.40 106.14 10.82L106.14 10.82L106.14 10.82Q105.78 11.24 105.49 11.80L105.49 11.80L105.49 11.80Q105.20 12.36 105.03 13.01L105.03 13.01L105.03 13.01Q106.15 12.45 106.89 11.63L106.89 11.63L106.89 11.63Q107.63 10.81 107.69 9.84ZM109.98 4.97L109.98 4.97L109.98 4.97Q110.12 5.05 110.27 5.24L110.27 5.24L110.27 5.24Q110.42 5.43 110.54 5.66L110.54 5.66L110.54 5.66Q110.66 5.89 110.73 6.13L110.73 6.13L110.73 6.13Q110.80 6.37 110.80 6.57L110.80 6.57L110.80 6.57Q110.26 6.93 109.86 7.17L109.86 7.17L109.86 7.17Q109.47 7.41 109.15 7.55L109.15 7.55L109.15 7.55Q108.84 7.70 108.60 7.76L108.60 7.76L108.60 7.76Q108.36 7.83 108.14 7.83L108.14 7.83L108.14 7.83Q107.69 7.83 107.37 7.56L107.37 7.56L107.37 7.56Q107.67 7.45 108.01 7.21L108.01 7.21L108.01 7.21Q108.35 6.97 108.69 6.64L108.69 6.64L108.69 6.64Q109.03 6.30 109.36 5.88L109.36 5.88L109.36 5.88Q109.69 5.46 109.98 4.97ZM125.61 19.81L125.61 19.81L125.61 19.81Q125.41 19.75 125.38 19.39L125.38 19.39L125.38 19.39Q125.33 19.21 125.31 18.96L125.31 18.96L125.31 18.96Q125.29 18.70 125.29 18.38L125.29 18.38L125.29 18.38Q125.29 18.09 125.38 17.58L125.38 17.58L125.38 17.58Q125.48 17.07 125.66 16.42L125.66 16.42L125.66 16.42Q125.83 15.78 126.08 15.03L126.08 15.03L126.08 15.03Q126.34 14.28 126.64 13.51L126.64 13.51L126.64 13.51Q127.02 12.54 127.30 11.84L127.30 11.84L127.30 11.84Q127.58 11.13 127.77 10.61L127.77 10.61L127.77 10.61Q127.96 10.09 128.08 9.76L128.08 9.76L128.08 9.76Q128.20 9.42 128.27 9.18L128.27 9.18L128.27 9.18Q128.32 9.02 128.44 8.78L128.44 8.78L128.44 8.78Q128.55 8.54 128.69 8.29L128.69 8.29L128.69 8.29Q128.84 8.05 129.00 7.83L129.00 7.83L129.00 7.83Q129.15 7.62 129.28 7.50L129.28 7.50L129.28 7.50Q129.77 7.57 130.20 7.76L130.20 7.76L130.20 7.76Q130.63 7.94 130.73 8.11L130.73 8.11L130.73 8.11Q130.54 8.29 130.28 8.67L130.28 8.67L130.28 8.67Q130.03 9.06 129.79 9.51L129.79 9.51L129.79 9.51Q129.56 9.97 129.36 10.44L129.36 10.44L129.36 10.44Q129.16 10.92 129.07 11.28L129.07 11.28L129.07 11.28Q129.21 11.05 129.43 10.77L129.43 10.77L129.43 10.77Q129.65 10.49 130.12 10.00L130.12 10.00L130.12 10.00Q130.63 9.46 131.09 9.18L131.09 9.18L131.09 9.18Q131.54 8.89 131.88 8.89L131.88 8.89L131.88 8.89Q132.41 8.89 132.75 9.18L132.75 9.18L132.75 9.18Q133.10 9.48 133.10 9.94L133.10 9.94L133.10 9.94Q133.10 10.95 132.76 11.94L132.76 11.94L132.76 11.94Q132.43 12.92 131.80 13.72L131.80 13.72L131.80 13.72Q131.56 14.03 131.24 14.31L131.24 14.31L131.24 14.31Q130.91 14.59 130.56 14.80L130.56 14.80L130.56 14.80Q130.21 15.02 129.88 15.15L129.88 15.15L129.88 15.15Q129.54 15.27 129.28 15.27L129.28 15.27L129.28 15.27Q129.02 15.27 128.83 15.17L128.83 15.17L128.83 15.17Q128.65 15.06 128.58 14.91L128.58 14.91L128.58 14.91Q129.12 14.59 129.64 14.01L129.64 14.01L129.64 14.01Q130.16 13.44 130.60 12.69L130.60 12.69L130.60 12.69Q131.04 11.94 131.37 11.07L131.37 11.07L131.37 11.07Q131.70 10.21 131.87 9.31L131.87 9.31L131.87 9.31Q131.33 9.59 130.91 9.92L130.91 9.92L130.91 9.92Q130.48 10.25 130.06 10.78L130.06 10.78L130.06 10.78Q129.56 11.40 129.26 11.77L129.26 11.77L129.26 11.77Q128.97 12.15 128.78 12.42L128.78 12.42L128.78 12.42Q128.59 12.68 128.47 12.91L128.47 12.91L128.47 12.91Q128.35 13.15 128.21 13.48L128.21 13.48L128.21 13.48Q128.02 13.93 127.76 14.67L127.76 14.67L127.76 14.67Q127.50 15.40 127.22 16.31L127.22 16.31L127.22 16.31Q126.95 17.22 126.68 18.25L126.68 18.25L126.68 18.25Q126.41 19.28 126.15 20.30L126.15 20.30L126.15 20.30Q126.00 20.27 125.89 20.08L125.89 20.08L125.89 20.08Q125.78 19.95 125.73 19.89L125.73 19.89L125.73 19.89Q125.68 19.84 125.61 19.81ZM142.25 15.67L142.25 15.67L142.25 15.67Q141.46 15.58 140.98 14.97L140.98 14.97L140.98 14.97Q140.50 14.35 140.50 13.40L140.50 13.40L140.50 13.40Q140.50 12.84 140.67 12.24L140.67 12.24L140.67 12.24Q140.84 11.63 141.15 11.07L141.15 11.07L141.15 11.07Q141.46 10.50 141.88 10.00L141.88 10.00L141.88 10.00Q142.30 9.49 142.79 9.13L142.79 9.13L142.79 9.13Q143.56 8.55 144.23 8.55L144.23 8.55L144.23 8.55Q144.68 8.79 145.11 9.55L145.11 9.55L145.11 9.55Q145.18 9.55 145.24 9.54L145.24 9.54L145.24 9.54Q145.29 9.53 145.36 9.53L145.36 9.53L145.36 9.53Q146.10 9.53 146.10 10.85L146.10 10.85L146.10 10.85Q146.10 11.73 145.82 12.52L145.82 12.52L145.82 12.52Q145.53 13.31 145.02 13.96L145.02 13.96L145.02 13.96Q144.51 14.60 143.80 15.04L143.80 15.04L143.80 15.04Q143.09 15.48 142.25 15.67ZM142.97 11.26L142.97 11.26L142.97 11.26Q142.73 11.58 142.52 11.96L142.52 11.96L142.52 11.96Q142.31 12.33 142.16 12.72L142.16 12.72L142.16 12.72Q142.00 13.10 141.92 13.46L141.92 13.46L141.92 13.46Q141.83 13.82 141.83 14.10L141.83 14.10L141.83 14.10Q141.83 14.43 141.95 14.74L141.95 14.74L141.95 14.74Q142.06 15.05 142.20 15.09L142.20 15.09L142.20 15.09Q142.83 14.95 143.35 14.57L143.35 14.57L143.35 14.57Q143.88 14.18 144.26 13.61L144.26 13.61L144.26 13.61Q144.65 13.03 144.87 12.31L144.87 12.31L144.87 12.31Q145.08 11.58 145.08 10.75L145.08 10.75L145.08 10.75Q145.08 10.39 145.04 10.18L145.04 10.18L145.04 10.18Q145.00 9.97 144.90 9.81L144.90 9.81L144.90 9.81Q144.28 10.00 143.80 10.40L143.80 10.40L143.80 10.40Q143.32 10.81 142.97 11.26ZM155.26 9.81L154.46 9.81L154.46 9.81Q154.39 9.73 154.34 9.46L154.34 9.46L154.34 9.46Q154.28 9.18 154.28 8.99L154.28 8.99L154.28 8.99Q154.64 9.02 154.98 9.04L154.98 9.04L154.98 9.04Q155.32 9.06 155.60 9.07L155.60 9.07L155.60 9.07Q155.81 8.65 156.05 8.24L156.05 8.24L156.05 8.24Q156.30 7.83 156.53 7.48L156.53 7.48L156.53 7.48Q156.76 7.14 156.96 6.90L156.96 6.90L156.96 6.90Q157.16 6.66 157.28 6.59L157.28 6.59L157.28 6.59Q157.42 6.59 157.63 6.64L157.63 6.64L157.63 6.64Q157.85 6.69 158.07 6.77L158.07 6.77L158.07 6.77Q158.30 6.85 158.48 6.93L158.48 6.93L158.48 6.93Q158.66 7.01 158.73 7.10L158.73 7.10L158.73 7.10Q158.31 7.63 158.01 8.09L158.01 8.09L158.01 8.09Q157.71 8.54 157.36 9.13L157.36 9.13L157.36 9.13Q157.64 9.13 157.93 9.11L157.93 9.11L157.93 9.11Q158.21 9.10 158.51 9.07L158.51 9.07L158.51 9.07Q158.58 9.14 158.62 9.25L158.62 9.25L158.62 9.25Q158.66 9.35 158.66 9.46L158.66 9.46L158.66 9.46Q157.98 9.72 157.00 9.74L157.00 9.74L157.00 9.74Q156.65 10.42 156.37 11.08L156.37 11.08L156.37 11.08Q156.10 11.75 155.91 12.36L155.91 12.36L155.91 12.36Q155.72 12.98 155.62 13.52L155.62 13.52L155.62 13.52Q155.51 14.07 155.51 14.50L155.51 14.50L155.51 14.50Q155.51 15.12 155.97 15.19L155.97 15.19L155.97 15.19Q156.39 15.13 156.77 14.98L156.77 14.98L156.77 14.98Q157.15 14.83 157.44 14.59L157.44 14.59L157.44 14.59Q157.53 14.71 157.54 14.80L157.54 14.80L157.54 14.80Q157.46 14.92 157.26 15.09L157.26 15.09L157.26 15.09Q157.05 15.26 156.81 15.42L156.81 15.42L156.81 15.42Q156.58 15.58 156.35 15.69L156.35 15.69L156.35 15.69Q156.13 15.81 156.02 15.82L156.02 15.82L156.02 15.82Q155.67 15.81 155.32 15.67L155.32 15.67L155.32 15.67Q154.97 15.53 154.68 15.32L154.68 15.32L154.68 15.32Q154.39 15.11 154.21 14.85L154.21 14.85L154.21 14.85Q154.03 14.59 154.03 14.34L154.03 14.34L154.03 14.34Q154.03 14 154.12 13.49L154.12 13.49L154.12 13.49Q154.21 12.98 154.38 12.38L154.38 12.38L154.38 12.38Q154.55 11.77 154.77 11.12L154.77 11.12L154.77 11.12Q154.99 10.46 155.26 9.81L155.26 9.81ZM165.23 14.90L165.23 14.90L165.23 14.90Q165.30 14.49 165.47 13.82L165.47 13.82L165.47 13.82Q165.65 13.16 165.89 12.41L165.89 12.41L165.89 12.41Q166.12 11.66 166.39 10.91L166.39 10.91L166.39 10.91Q166.66 10.15 166.91 9.55L166.91 9.55L166.91 9.55Q167.09 9.11 167.23 8.87L167.23 8.87L167.23 8.87Q167.37 8.62 167.54 8.46L167.54 8.46L167.54 8.46Q167.73 8.48 167.94 8.55L167.94 8.55L167.94 8.55Q168.15 8.62 168.35 8.72L168.35 8.72L168.35 8.72Q168.55 8.82 168.70 8.93L168.70 8.93L168.70 8.93Q168.85 9.03 168.94 9.13L168.94 9.13L168.94 9.13Q168.56 9.58 168.27 10.15L168.27 10.15L168.27 10.15Q167.99 10.72 167.69 11.62L167.69 11.62L167.69 11.62Q168.45 10.95 169.03 10.33L169.03 10.33L169.03 10.33Q169.61 9.72 170.11 8.96L170.11 8.96L170.11 8.96Q170.20 8.89 170.41 8.89L170.41 8.89L170.41 8.89Q170.60 8.89 170.79 8.95L170.79 8.95L170.79 8.95Q170.97 9.02 171.04 9.13L171.04 9.13L171.04 9.13Q170.79 9.80 170.79 10.46L170.79 10.46L170.79 10.46Q170.79 11.07 170.97 11.38L170.97 11.38L170.97 11.38Q170.95 11.47 170.78 11.70L170.78 11.70L170.78 11.70Q170.60 11.94 170.39 12.15L170.39 12.15L170.39 12.15Q170.02 11.96 169.72 11.61L169.72 11.61L169.72 11.61Q169.43 11.27 169.29 10.86L169.29 10.86L169.29 10.86Q168.63 11.33 168.17 11.77L168.17 11.77L168.17 11.77Q167.71 12.21 167.38 12.75L167.38 12.75L167.38 12.75Q167.05 13.29 166.82 13.99L166.82 13.99L166.82 13.99Q166.59 14.69 166.38 15.65L166.38 15.65L166.38 15.65Q166.25 15.64 166.08 15.56L166.08 15.56L166.08 15.56Q165.90 15.48 165.73 15.37L165.73 15.37L165.73 15.37Q165.55 15.26 165.41 15.13L165.41 15.13L165.41 15.13Q165.27 15.01 165.23 14.90ZM170.09 8.11L170.09 8.11L170.09 8.11Q169.71 8.01 169.52 7.92L169.52 7.92L169.52 7.92Q169.33 7.84 169.18 7.70L169.18 7.70L169.18 7.70Q169.09 6.90 168.85 6.30L168.85 6.30L168.85 6.30Q168.62 5.70 168.21 5.19L168.21 5.19L168.21 5.19Q168.32 5.17 168.36 5.17L168.36 5.17L168.36 5.17Q168.41 5.17 168.45 5.17L168.45 5.17L168.45 5.17Q169.25 5.17 170.00 6.87L170.00 6.87L170.00 6.87Q170.44 6.33 170.76 6.01L170.76 6.01L170.76 6.01Q171.08 5.68 171.39 5.53L171.39 5.53L171.39 5.53Q171.53 5.56 171.73 5.75L171.73 5.75L171.73 5.75Q171.93 5.94 172.14 6.22L172.14 6.22L172.14 6.22Q171.61 6.44 171.14 6.87L171.14 6.87L171.14 6.87Q170.66 7.31 170.09 8.11ZM183.22 9.38L183.22 9.38L183.22 9.38Q183.16 10.25 182.91 10.87L182.91 10.87L182.91 10.87Q182.66 11.49 182.19 11.96L182.19 11.96L182.19 11.96Q181.72 12.43 181.05 12.81L181.05 12.81L181.05 12.81Q180.38 13.19 179.48 13.54L179.48 13.54L179.48 13.54Q179.48 13.62 179.47 13.71L179.47 13.71L179.47 13.71Q179.47 13.80 179.47 13.90L179.47 13.90L179.47 13.90Q179.47 14.08 179.49 14.28L179.49 14.28L179.49 14.28Q179.52 14.48 179.59 14.64L179.59 14.64L179.59 14.64Q179.66 14.81 179.79 14.92L179.79 14.92L179.79 14.92Q179.91 15.02 180.11 15.02L180.11 15.02L180.11 15.02Q180.49 15.02 180.85 14.85L180.85 14.85L180.85 14.85Q181.22 14.69 181.55 14.44L181.55 14.44L181.55 14.44Q181.87 14.20 182.16 13.91L182.16 13.91L182.16 13.91Q182.45 13.62 182.67 13.38L182.67 13.38L182.67 13.38Q182.81 13.51 182.91 13.62L182.91 13.62L182.91 13.62Q182.28 14.46 181.53 15.02L181.53 15.02L181.53 15.02Q180.78 15.57 180.11 15.72L180.11 15.72L180.11 15.72Q179.14 15.61 178.61 15.02L178.61 15.02L178.61 15.02Q178.07 14.42 178.07 13.58L178.07 13.58L178.07 13.58Q178.07 13.01 178.23 12.41L178.23 12.41L178.23 12.41Q178.39 11.82 178.68 11.26L178.68 11.26L178.68 11.26Q178.96 10.71 179.35 10.22L179.35 10.22L179.35 10.22Q179.73 9.73 180.17 9.37L180.17 9.37L180.17 9.37Q180.61 9.00 181.08 8.79L181.08 8.79L181.08 8.79Q181.55 8.58 182.01 8.58L182.01 8.58L182.01 8.58Q182.66 8.67 183.22 9.38ZM182.25 9.84L182.25 9.84L182.25 9.84Q181.87 9.90 181.47 10.15L181.47 10.15L181.47 10.15Q181.06 10.40 180.71 10.82L180.71 10.82L180.71 10.82Q180.35 11.24 180.05 11.80L180.05 11.80L180.05 11.80Q179.76 12.36 179.59 13.01L179.59 13.01L179.59 13.01Q180.71 12.45 181.45 11.63L181.45 11.63L181.45 11.63Q182.20 10.81 182.25 9.84ZM192.15 15.27L192.15 15.27L192.15 15.27Q192.79 14.84 193.41 14.16L193.41 14.16L193.41 14.16Q194.03 13.48 194.53 12.69L194.53 12.69L194.53 12.69Q195.03 11.90 195.38 11.05L195.38 11.05L195.38 11.05Q195.73 10.19 195.86 9.41L195.86 9.41L195.86 9.41Q195.86 9.24 195.68 9.18L195.68 9.18L195.68 9.18Q195.48 9.18 195.14 9.53L195.14 9.53L195.14 9.53Q194.80 9.87 194.38 10.40L194.38 10.40L194.38 10.40Q193.97 10.93 193.54 11.59L193.54 11.59L193.54 11.59Q193.12 12.25 192.77 12.90L192.77 12.90L192.77 12.90Q192.42 13.55 192.17 14.12L192.17 14.12L192.17 14.12Q191.93 14.69 191.90 15.04L191.90 15.04L191.90 15.04Q191.76 15.04 191.66 14.76L191.66 14.76L191.66 14.76Q191.63 14.69 191.56 14.61L191.56 14.61L191.56 14.61Q191.49 14.53 191.34 14.42L191.34 14.42L191.34 14.42Q191.27 14.36 191.20 14.29L191.20 14.29L191.20 14.29Q191.13 14.21 191.10 14.15L191.10 14.15L191.10 14.15Q191.04 14.04 191.04 13.79L191.04 13.79L191.04 13.79Q191.04 12.96 191.25 11.93L191.25 11.93L191.25 11.93Q191.46 10.89 191.81 9.81L191.81 9.81L191.81 9.81Q192.15 8.74 192.61 7.69L192.61 7.69L192.61 7.69Q193.07 6.65 193.57 5.78L193.57 5.78L193.57 5.78Q194.07 4.91 194.57 4.31L194.57 4.31L194.57 4.31Q195.08 3.71 195.52 3.51L195.52 3.51L195.52 3.51Q195.66 3.56 195.86 3.65L195.86 3.65L195.86 3.65Q196.06 3.75 196.25 3.88L196.25 3.88L196.25 3.88Q196.45 4.00 196.62 4.13L196.62 4.13L196.62 4.13Q196.80 4.26 196.88 4.35L196.88 4.35L196.88 4.35Q195.34 5.60 194.22 7.55L194.22 7.55L194.22 7.55Q193.09 9.51 192.37 12.17L192.37 12.17L192.37 12.17Q192.77 11.44 193.26 10.76L193.26 10.76L193.26 10.76Q193.75 10.08 194.23 9.56L194.23 9.56L194.23 9.56Q194.71 9.04 195.15 8.74L195.15 8.74L195.15 8.74Q195.59 8.43 195.89 8.43L195.89 8.43L195.89 8.43Q196.11 8.48 196.32 8.62L196.32 8.62L196.32 8.62Q196.53 8.76 196.70 8.97L196.70 8.97L196.70 8.97Q196.87 9.17 196.98 9.40L196.98 9.40L196.98 9.40Q197.09 9.63 197.12 9.88L197.12 9.88L197.12 9.88Q197.11 10.47 196.92 11.14L196.92 11.14L196.92 11.14Q196.73 11.80 196.41 12.45L196.41 12.45L196.41 12.45Q196.10 13.09 195.70 13.68L195.70 13.68L195.70 13.68Q195.30 14.27 194.86 14.71L194.86 14.71L194.86 14.71Q194.42 15.15 193.98 15.41L193.98 15.41L193.98 15.41Q193.54 15.68 193.14 15.68L193.14 15.68L193.14 15.68Q192.98 15.68 192.80 15.64L192.80 15.64L192.80 15.64Q192.63 15.61 192.48 15.55L192.48 15.55L192.48 15.55Q192.33 15.48 192.24 15.41L192.24 15.41L192.24 15.41Q192.15 15.34 192.15 15.27ZM209.73 13.01L209.73 13.01L209.73 13.01Q209.41 14.03 209.09 14.87L209.09 14.87L209.09 14.87Q208.77 15.71 208.40 16.41L208.40 16.41L208.40 16.41Q208.04 17.12 207.62 17.72L207.62 17.72L207.62 17.72Q207.20 18.31 206.70 18.84L206.70 18.84L206.70 18.84Q206.05 19.52 205.37 19.87L205.37 19.87L205.37 19.87Q204.68 20.23 203.99 20.23L203.99 20.23L203.99 20.23Q203.64 20.23 203.30 20.15L203.30 20.15L203.30 20.15Q202.96 20.08 202.66 19.94L202.66 19.94L202.66 19.94Q202.36 19.81 202.13 19.64L202.13 19.64L202.13 19.64Q201.89 19.46 201.80 19.26L201.80 19.26L201.80 19.26Q201.80 19.10 201.99 18.97L201.99 18.97L201.99 18.97Q202.16 19.12 202.27 19.21L202.27 19.21L202.27 19.21Q202.38 19.29 202.49 19.35L202.49 19.35L202.49 19.35Q202.59 19.40 202.71 19.42L202.71 19.42L202.71 19.42Q202.83 19.43 202.99 19.43L202.99 19.43L202.99 19.43Q203.78 19.43 204.55 18.96L204.55 18.96L204.55 18.96Q205.31 18.49 205.99 17.63L205.99 17.63L205.99 17.63Q206.67 16.77 207.23 15.55L207.23 15.55L207.23 15.55Q207.79 14.32 208.18 12.81L208.18 12.81L208.18 12.81Q208.00 13.09 207.73 13.50L207.73 13.50L207.73 13.50Q207.47 13.90 207.14 14.30L207.14 14.30L207.14 14.30Q206.82 14.70 206.48 15.02L206.48 15.02L206.48 15.02Q206.14 15.34 205.81 15.46L205.81 15.46L205.81 15.46Q205.59 15.44 205.35 15.37L205.35 15.37L205.35 15.37Q205.10 15.29 204.88 15.15L204.88 15.15L204.88 15.15Q204.67 15.01 204.50 14.81L204.50 14.81L204.50 14.81Q204.33 14.62 204.27 14.36L204.27 14.36L204.27 14.36Q204.27 13.96 204.30 13.71L204.30 13.71L204.30 13.71Q204.33 13.47 204.40 13.17L204.40 13.17L204.40 13.17Q204.53 12.64 204.77 11.97L204.77 11.97L204.77 11.97Q205.02 11.30 205.35 10.65L205.35 10.65L205.35 10.65Q205.67 10.00 206.07 9.43L206.07 9.43L206.07 9.43Q206.47 8.86 206.91 8.54L206.91 8.54L206.91 8.54Q207.02 8.54 207.19 8.56L207.19 8.56L207.19 8.56Q207.35 8.58 207.54 8.64L207.54 8.64L207.54 8.64Q207.72 8.69 207.89 8.77L207.89 8.77L207.89 8.77Q208.05 8.85 208.18 8.97L208.18 8.97L208.18 8.97Q208.03 9.11 207.51 9.91L207.51 9.91L207.51 9.91Q206.99 10.71 206.36 12.21L206.36 12.21L206.36 12.21Q206.29 12.36 206.19 12.66L206.19 12.66L206.19 12.66Q206.09 12.95 206.00 13.27L206.00 13.27L206.00 13.27Q205.91 13.59 205.84 13.90L205.84 13.90L205.84 13.90Q205.77 14.21 205.77 14.39L205.77 14.39L205.77 14.39Q205.77 14.50 205.81 14.56L205.81 14.56L205.81 14.56Q205.84 14.62 205.87 14.64L205.87 14.64L205.87 14.64Q206.12 14.60 206.54 14.23L206.54 14.23L206.54 14.23Q206.96 13.86 207.49 13.08L207.49 13.08L207.49 13.08Q207.83 12.57 208.11 12.07L208.11 12.07L208.11 12.07Q208.39 11.58 208.66 11.07L208.66 11.07L208.66 11.07Q208.94 10.57 209.23 10.04L209.23 10.04L209.23 10.04Q209.52 9.51 209.86 8.95L209.86 8.95L209.86 8.95Q210.04 8.95 210.25 8.99L210.25 8.99L210.25 8.99Q210.46 9.03 210.66 9.09L210.66 9.09L210.66 9.09Q210.85 9.16 211.00 9.23L211.00 9.23L211.00 9.23Q211.15 9.31 211.22 9.39L211.22 9.39L211.22 9.39Q210.78 10.32 210.41 11.20L210.41 11.20L210.41 11.20Q210.03 12.08 209.73 13.01Z"></path></g></svg>