<svg data-v-423bf9ae="" xmlns="http://www.w3.org/2000/svg" viewBox="0 0 283.6417340211116 60" class="font"><!----><!----><!----><g data-v-423bf9ae="" id="a3ed4453-ef97-42c4-9e3b-a618de8f5d7f" fill="black" transform="matrix(5.731293683599221,0,0,5.731293683599221,-5.6166707292067315,-27.230291871637824)"><path d="M5.40 9.80C6.54 9.48 7.18 8.60 7.18 7.45C7.18 5.75 5.78 5.08 3.39 5.08C2.20 5.08 1.47 5.24 0.98 5.47C1.19 6.02 1.23 6.79 1.23 7.18L1.23 14.15C1.23 14.70 1.64 15.02 2.18 15.02L3.68 15.02C6.20 15.02 7.66 14.20 7.66 12.29C7.66 10.84 6.76 10.00 5.40 9.80ZM3.39 5.70C4.89 5.70 5.42 6.40 5.42 7.57C5.42 8.81 4.84 9.58 3.72 9.56L2.90 9.56L2.90 5.70ZM3.64 14.41L2.90 14.41L2.90 10.18L3.67 10.18C4.94 10.18 5.85 10.61 5.85 12.32C5.85 13.61 5.18 14.41 3.64 14.41ZM15.81 13.79C15.71 13.94 15.54 13.97 15.44 13.97C15.19 13.97 15.06 13.78 15.06 13.24L15.05 8.58C15.05 7.99 14.63 7.64 14.11 7.64C13.65 7.64 13.31 7.87 13.17 7.99C13.44 8.68 13.44 9.17 13.44 11.14C13.44 13.41 12.71 14.43 11.86 14.43C10.99 14.43 10.75 13.69 10.75 12.11L10.75 8.50C10.75 7.95 10.35 7.64 9.81 7.64C9.38 7.64 9.09 7.83 8.86 7.99C9.07 8.55 9.11 9.27 9.11 9.72L9.11 12.36C9.11 14.45 9.81 15.22 11.31 15.22C12.47 15.22 13.24 14.62 13.62 13.55C13.62 14.66 14.13 15.19 14.94 15.19C15.61 15.19 15.97 14.84 15.97 14.32C15.97 14.14 15.92 13.97 15.81 13.79ZM20.08 15.22C22.44 15.22 23.41 13.58 23.41 11.14C23.41 8.64 22.43 7.64 20.94 7.64C19.84 7.64 19.05 8.26 18.75 9.17L18.75 7.83C18.75 7.22 18.79 6.05 19.01 5.14C18.84 5.01 18.48 4.77 17.99 4.77C17.50 4.77 17.12 5.08 17.12 5.64L17.12 14.28C17.78 14.90 18.94 15.22 20.08 15.22ZM19.98 14.53C19.50 14.53 19.01 14.36 18.75 14.14L18.75 11.62C18.75 10.07 19.29 8.51 20.57 8.51C21.32 8.51 21.66 9.31 21.66 11.14C21.66 12.88 21.42 14.50 19.98 14.53ZM30.42 13.06C30.11 13.72 29.40 14.17 28.38 14.17C27.19 14.17 26.38 13.57 26.25 11.79C26.74 11.84 27.20 11.86 27.66 11.86C29.51 11.86 30.73 11.12 30.73 9.73C30.73 8.34 29.53 7.64 27.96 7.64C25.69 7.64 24.47 9.09 24.47 11.42C24.47 13.86 25.82 15.22 27.93 15.22C29.20 15.22 30.18 14.73 30.53 13.83C30.74 13.34 30.60 13.15 30.42 13.06ZM27.90 8.23C28.43 8.23 28.97 8.48 28.97 9.46C28.97 11.03 27.78 11.24 26.78 11.23C26.59 11.23 26.39 11.21 26.22 11.20C26.22 9.32 26.85 8.23 27.90 8.23ZM38.46 13.13L38.46 10.49C38.46 8.60 37.74 7.64 36.20 7.64C35.03 7.64 34.23 8.25 33.85 9.32C33.85 8.19 33.35 7.64 32.54 7.64C31.88 7.64 31.50 8.01 31.50 8.51C31.50 8.71 31.56 8.88 31.67 9.06C31.77 8.90 31.93 8.88 32.05 8.88C32.28 8.88 32.40 9.07 32.41 9.60L32.41 14.27C32.41 14.85 32.82 15.22 33.38 15.22C33.82 15.22 34.16 14.99 34.31 14.85C34.03 14.18 34.03 13.68 34.03 11.70C34.03 9.48 34.79 8.48 35.67 8.48C36.58 8.48 36.82 9.30 36.83 10.72L36.83 14.35C36.83 14.88 37.24 15.22 37.77 15.22C38.18 15.22 38.49 15.05 38.72 14.84C38.50 14.29 38.47 13.58 38.46 13.13ZM43.34 5.10C43.18 4.96 42.27 4.70 41.86 4.76L40.60 6.94C40.70 7.01 41.01 7.06 41.20 7.07ZM42.07 13.13L42.06 8.48C42.06 7.94 41.66 7.63 41.12 7.63C40.67 7.63 40.35 7.87 40.21 7.99C40.40 8.54 40.45 9.17 40.45 9.70L40.45 14.35C40.45 14.88 40.85 15.22 41.37 15.22C41.83 15.22 42.17 14.98 42.31 14.84C42.10 14.29 42.07 13.68 42.07 13.13ZM50.26 13.69C50.12 13.80 49.97 13.83 49.87 13.83C49.59 13.83 49.49 13.66 49.27 13.27L48.73 12.36C48.51 11.98 48.30 11.72 47.99 11.63C49 11.16 49.99 10.37 49.99 9.21C49.99 8.33 49.46 7.64 48.22 7.64C46.93 7.64 46.06 8.37 45.64 9.48L45.65 8.15C45.70 7.07 45.64 6.51 45.91 5.14C45.78 5.01 45.46 4.77 44.98 4.77C44.44 4.77 44.03 5.08 44.04 5.64L44.04 14.27C44.04 14.80 44.21 15.22 44.95 15.22C45.47 15.22 45.75 15.01 45.95 14.85C45.68 14.22 45.67 13.87 45.67 12.32C46.03 12.25 46.44 12.14 46.90 12.00L47.88 14.20C48.16 14.90 48.68 15.22 49.25 15.22C49.94 15.22 50.47 14.78 50.47 14.24C50.47 14.06 50.41 13.86 50.26 13.69ZM45.67 11.69C45.67 9.90 46.48 8.48 47.60 8.48C48.01 8.48 48.33 8.69 48.33 9.31C48.33 10.57 46.91 11.33 45.67 11.69Z"></path></g><!----><!----></svg>